<svg xmlns="http://www.w3.org/2000/svg" width="1200" height="560" viewBox="0 0 1200 560">
  <defs>
    <linearGradient id="bg2" x1="0" x2="1" y1="0" y2="1">
      <stop offset="0" stop-color="#f8f5ec"/>
      <stop offset="1" stop-color="#edf7fb"/>
    </linearGradient>
    <marker id="arrow2" viewBox="0 0 10 10" refX="8" refY="5" markerWidth="8" markerHeight="8" orient="auto">
      <path d="M 0 0 L 10 5 L 0 10 z" fill="#175d76"/>
    </marker>
  </defs>
  <rect width="1200" height="560" rx="34" fill="url(#bg2)"/>
  <text x="52" y="66" font-family="Segoe UI, Microsoft YaHei, sans-serif" font-size="32" font-weight="800" fill="#175d76">Desktop / VL / Computer-Use Adapter</text>
  <text x="52" y="102" font-family="Segoe UI, Microsoft YaHei, sans-serif" font-size="18" fill="#59675d">同一套 agent core，按平台替换操作层；危险动作统一走人类确认和审计</text>

  <rect x="70" y="170" width="250" height="190" rx="24" fill="#ffffff" stroke="#bddceb" stroke-width="2"/>
  <text x="102" y="220" font-size="26" font-weight="800" fill="#175d76" font-family="Segoe UI, Microsoft YaHei">Agent Core</text>
  <text x="102" y="260" font-size="18" fill="#27343a" font-family="Segoe UI, Microsoft YaHei">provider / session</text>
  <text x="102" y="288" font-size="18" fill="#27343a" font-family="Segoe UI, Microsoft YaHei">approval / audit</text>
  <text x="102" y="316" font-size="18" fill="#27343a" font-family="Segoe UI, Microsoft YaHei">trace / compaction</text>

  <rect x="458" y="156" width="284" height="218" rx="28" fill="#ffffff" stroke="#bddceb" stroke-width="2"/>
  <text x="498" y="210" font-size="26" font-weight="800" fill="#175d76" font-family="Segoe UI, Microsoft YaHei">MCP Tool Schema</text>
  <text x="498" y="250" font-size="18" fill="#27343a" font-family="Segoe UI, Microsoft YaHei">screen.read</text>
  <text x="498" y="278" font-size="18" fill="#27343a" font-family="Segoe UI, Microsoft YaHei">app.activate</text>
  <text x="498" y="306" font-size="18" fill="#27343a" font-family="Segoe UI, Microsoft YaHei">mouse.click / keyboard.type</text>
  <text x="498" y="334" font-size="18" fill="#27343a" font-family="Segoe UI, Microsoft YaHei">verify.result</text>

  <rect x="875" y="120" width="250" height="132" rx="22" fill="#ffffff" stroke="#bddceb" stroke-width="2"/>
  <text x="912" y="166" font-size="24" font-weight="800" fill="#175d76" font-family="Segoe UI, Microsoft YaHei">Windows</text>
  <text x="912" y="202" font-size="18" fill="#27343a" font-family="Segoe UI, Microsoft YaHei">UI Automation + OCR</text>
  <text x="912" y="228" font-size="18" fill="#27343a" font-family="Segoe UI, Microsoft YaHei">keyboard / mouse</text>

  <rect x="875" y="308" width="250" height="132" rx="22" fill="#ffffff" stroke="#bddceb" stroke-width="2"/>
  <text x="912" y="354" font-size="24" font-weight="800" fill="#175d76" font-family="Segoe UI, Microsoft YaHei">macOS 预留</text>
  <text x="912" y="390" font-size="18" fill="#27343a" font-family="Segoe UI, Microsoft YaHei">Accessibility Tree</text>
  <text x="912" y="416" font-size="18" fill="#27343a" font-family="Segoe UI, Microsoft YaHei">AppleScript + GUI model</text>

  <path d="M 330 265 L 446 265" stroke="#175d76" stroke-width="5" marker-end="url(#arrow2)"/>
  <path d="M 754 240 C 800 200, 818 184, 864 184" stroke="#175d76" stroke-width="5" fill="none" marker-end="url(#arrow2)"/>
  <path d="M 754 292 C 800 340, 818 374, 864 374" stroke="#175d76" stroke-width="5" fill="none" marker-end="url(#arrow2)"/>
  <rect x="330" y="430" width="530" height="68" rx="18" fill="#fff8e8" stroke="#d8c08a"/>
  <text x="365" y="472" font-size="20" font-weight="800" fill="#7a5312" font-family="Segoe UI, Microsoft YaHei">Human Guardrail: allow-list · dry-run · HITL · audit · rollback</text>
</svg>
